{"title":"Travellers.2011.720p.BRRip.x264.Feel-Free","uid":6215210,"size":2287036270,"categoryP":"video","categoryS":"hd___movies","magnet":"?xt=urn:btih:c6cbacd01ab0cbbecfaf93a7479023804d9a8f38&amp;dn=Travellers.2011.720p.BRRip.x264.Feel-Free&amp;tr=udp%3A%2F%2Ftracker.openbittorrent.com%3A80&amp;tr=udp%3A%2F%2Fopen.demonii.com%3A1337&amp;tr=udp%3A%2F%2Ftracker.coppersurfer.tk%3A6969&amp;tr=udp%3A%2F%2Fexodus.desync.com%3A6969","seeders":0,"leechers":1,"uploader":"hiest","files":8,"time":1299137316,"description":"\n #######                         #######                      \n #       ###### ###### #         #       #####  ###### ###### \n #       #      #      #         #       #    # #      #      \n #####   #####  #####  #         #####   #    # #####  #####  \n #       #      #      #         #       #####  #      #      \n #       #      #      #         #       #   #  #      #      \n #       ###### ###### ######    #       #    # ###### ###### \n\nGenre:Thriller \nLanguage:English\nIMDb: &lt;a href=&quot;\nhttp://www.imdb.com/title/tt1336253/&quot; rel=&quot;nofollow&quot; target=&quot;_NEW&quot;&gt;\nhttp://www.imdb.com/title/tt1336253/&lt;/a&gt;\nSource:BluRay.x264.MELiTE\n\n\nFormat : MPEG-4\nFormat profile : Base Media\nCodec ID : isom\nFile size : 2.13 GiB\nDuration : 1h 28mn\nOverall bit rate : 3 456 Kbps\n\n\nVideo\nFormat profile : &lt;a class=&quot;__cf_email__&quot; href=&quot;/cdn-cgi/l/email-protection&quot; data-cfemail=&quot;85cdece2edc5c9b1abb4&quot;&gt;[email&amp;#160;protected]&lt;/a&gt;&lt;script cf-hash='f9e31' type=&quot;text/javascript&quot;&gt;\n/* &lt;![CDATA[ */!function(){try{var t=&quot;currentScript&quot;in document?document.currentScript:function(){for(var t=document.getElementsByTagName(&quot;script&quot;),e=t.length;e--;)if(t[e].getAttribute(&quot;cf-hash&quot;))return t[e]}();if(t&amp;&amp;t.previousSibling){var e,r,n,i,c=t.previousSibling,a=c.getAttribute(&quot;data-cfemail&quot;);if(a){for(e=&quot;&quot;,r=parseInt(a.substr(0,2),16),n=2;a.length-n;n+=2)i=parseInt(a.substr(n,2),16)^r,e+=String.fromCharCode(i);e=document.createTextNode(e),c.parentNode.replaceChild(e,c)}}}catch(u){}}();/* ]]&gt; */&lt;/script&gt;\nFormat settings, CABAC : Yes\nFormat settings, ReFrames : 3 frames\nCodec ID : avc1\nCodec ID/Info : Advanced Video Coding\nDuration : 1h 28mn\nBit rate mode : Variable\nBit rate : 3 006 Kbps\nNominal bit rate : 3 208 Kbps\nMaximum bit rate : 16.7 Mbps\nWidth : 1 280 pixels\nHeight : 528 pixels\nDisplay aspect ratio : 2.40:1\nFrame rate mode : Constant\nFrame rate : 23.976 fps\nColor space : YUV\nChroma subsampling : 4:2:0\nBit depth : 8 bits\nScan type : Progressive\nBits/(Pixel*Frame) : 0.186\nStream size : 1.85 GiB (87%)\nWriting library : x264\n\nAudio\nID : 2\nFormat : AAC\nFormat/Info : Advanced Audio Codec\nFormat version : Version 4\nFormat profile : LC\nFormat settings, SBR : No\nCodec ID : 40\nDuration : 1h 28mn\nBit rate mode : Variable\nBit rate : 446 Kbps\nMaximum bit rate : 546 Kbps\nChannel(s) : 6 channels\nChannel positions : Front: L C R, Side: L R, LFE\nSampling rate : 48.0 KHz\nStream size : 281 MiB (13%)\n\nPlot:\nFour friends set out on a motorcycle adventure weekend, clocking up miles in an attempt to outrun their age and urban lifestyles\n\n\n\n\n\n\n================================== &lt;a href=&quot;\nhttp://thepiratebay.se/user/hiest&quot; rel=&quot;nofollow&quot; target=&quot;_NEW&quot;&gt;\nhttp://thepiratebay.se/user/hiest&lt;/a&gt;\n==================================\n\n\n\n\n\nScreen Shots:\n &lt;a href=&quot;\nhttp://www.postimg.com/30000/29371.jpg&quot; rel=&quot;nofollow&quot; target=&quot;_NEW&quot;&gt;\nhttp://www.postimg.com/30000/29371.jpg&lt;/a&gt;\n &lt;a href=&quot;\nhttp://www.postimg.com/30000/29372.jpg&quot; rel=&quot;nofollow&quot; target=&quot;_NEW&quot;&gt;\nhttp://www.postimg.com/30000/29372.jpg&lt;/a&gt;\n &lt;a href=&quot;\nhttp://www.postimg.com/30000/29373.jpg&quot; rel=&quot;nofollow&quot; target=&quot;_NEW&quot;&gt;\nhttp://www.postimg.com/30000/29373.jpg&lt;/a&gt;\n &lt;a href=&quot;\nhttp://www.postimg.com/30000/29374.jpg&quot; rel=&quot;nofollow&quot; target=&quot;_NEW&quot;&gt;\nhttp://www.postimg.com/30000/29374.jpg&lt;/a&gt;\n\n\n #######                         #######                      \n #       ###### ###### #         #       #####  ###### ###### \n #       #      #      #         #       #    # #      #      \n #####   #####  #####  #         #####   #    # #####  #####  \n #       #      #      #         #       #####  #      #      \n #       #      #      #         #       #   #  #      #      \n #       ###### ###### ######    #       #    # ###### ###### \n","torrent":{"xt":"urn:btih:c6cbacd01ab0cbbecfaf93a7479023804d9a8f38","amp;dn":"Travellers.2011.720p.BRRip.x264.Feel-Free","amp;tr":["udp%3A%2F%2Ftracker.openbittorrent.com%3A80","udp%3A%2F%2Fopen.demonii.com%3A1337","udp%3A%2F%2Ftracker.coppersurfer.tk%3A6969","udp%3A%2F%2Fexodus.desync.com%3A6969"],"infoHash":"c6cbacd01ab0cbbecfaf93a7479023804d9a8f38","infoHashBuffer":{"type":"Buffer","data":[198,203,172,208,26,176,203,190,207,175,147,167,71,144,35,128,77,154,143,56]},"announce":[],"urlList":[]}}